<svg width="700" height="700" viewBox="0 0 700 700" fill="none" xmlns="http://www.w3.org/2000/svg">
<circle cx="350" cy="350" r="350" fill="#FFF3E7"/>
<path d="M263.886 133.583C223.682 141.714 192.747 169.709 179.887 209.669C177.106 218.381 175.638 221.91 175.059 238.869C174.712 254.203 175.948 259.967 177.454 266.705C190.894 326.761 252.995 364.397 311.968 348.251C331.317 342.907 347.885 333.382 361.904 319.442C383.338 298.301 393.881 273.326 393.997 243.937C394.113 223.725 390.637 209.205 381.368 191.083C365.959 160.997 337.921 139.856 304.669 133.467C294.241 131.492 274.082 131.492 263.886 133.583ZM292.619 184.811L292.967 192.013L297.833 193.29C304.437 194.917 314.864 201.189 314.864 203.396C314.864 205.836 309.303 216.639 307.913 216.639C307.334 216.639 304.205 215.013 300.961 212.922C296.558 210.25 293.314 209.088 288.332 208.74C277.789 207.927 271.996 211.992 271.996 220.008C271.996 224.654 275.819 227.442 294.01 236.154C313.822 245.563 317.182 249.513 317.182 263.336C317.182 272.281 314.169 279.018 307.565 284.71C304.9 286.917 300.498 289.356 297.833 290.17L292.967 291.447L292.619 298.417L292.272 305.503L285.668 305.851L279.064 306.2L278.716 298.998L278.368 291.912L271.301 289.705C263.422 287.266 253.111 280.76 252.531 277.856C252.068 275.649 259.136 265.543 261.105 265.427C261.916 265.427 265.16 267.17 268.404 269.377C271.648 271.584 277.094 274.023 280.686 274.72C286.247 275.882 287.637 275.765 292.156 273.791C297.601 271.351 299.803 268.447 299.803 264.033C299.803 258.806 296.211 256.018 279.643 248.119C261.684 239.523 256.818 235.457 254.501 226.861C252.995 220.821 253.806 213.503 256.818 207.578C259.599 202.119 263.075 198.982 269.679 195.73C272.575 194.336 275.704 192.826 276.63 192.361C277.789 191.664 278.484 189.225 278.716 184.23L279.064 177.028L285.668 177.376L292.272 177.725L292.619 184.811Z" fill="#F98B83"/>
<path d="M451.969 236.105C443.144 239.006 435.48 243.531 428.165 250.494C419.92 258.268 415.972 264.883 411.56 277.995C399.019 315.823 376.143 343.092 343.63 359.222C314.019 373.726 280.693 376.859 249.341 367.924C238.309 364.675 218.337 355.624 210.092 349.939L204.867 346.341L202.429 351.911C199.409 358.99 196.042 371.406 194.3 381.849C192.907 390.784 190.12 396.238 185.707 399.139C182.224 401.46 182.108 400.995 185.127 393.105C192.791 373.03 179.785 353.304 165.27 363.051C159.232 367.112 155.865 374.307 155.749 382.777C155.749 390.32 157.258 394.729 162.832 402.04C165.619 405.869 165.735 405.985 163.645 407.493C162.483 408.422 160.277 409.118 158.768 409.118C155.516 409.118 152.149 413.876 153.194 417.241C155.052 423.159 164.109 422.695 172.354 416.196C175.373 413.76 177.811 412.947 181.179 412.947C183.849 412.947 187.565 412.135 189.423 411.207L192.791 409.582L194.184 420.026C197.784 446.018 209.744 470.85 232.387 499.28C247.831 518.658 253.869 531.77 256.308 551.149C257.237 558.923 258.166 562.172 260.14 564.493L262.695 567.51L292.886 567.858C317.735 568.206 323.773 567.974 327.257 566.466C331.902 564.493 333.76 561.128 333.76 554.166C333.76 545.695 332.831 546.043 356.403 546.043H377.769L378.466 551.497C379.975 563.101 380.324 564.609 382.646 565.77C384.155 566.582 396.348 566.93 417.946 566.698C447.557 566.35 451.156 566.118 453.014 564.377C454.64 562.637 455.221 559.388 455.801 547.32C456.498 533.163 456.73 531.77 460.794 523.416C464.394 515.757 467.297 512.044 480.651 498.467C497.836 480.83 507.707 467.021 513.745 452.052C515.719 447.063 518.39 442.073 519.551 441.029C520.828 439.868 525.124 438.708 530.001 438.012C534.995 437.431 539.523 436.039 541.497 434.646C547.419 430.469 548 427.22 548 398.675C548 375.931 547.768 372.102 545.91 368.853C543.007 363.399 539.291 361.426 529.885 360.266C519.783 358.99 518.39 357.945 510.145 344.253C499.81 327.427 491.101 315.011 481.928 304.219C471.245 291.687 469.039 286.001 469.968 274.166C470.432 268.364 471.826 263.722 475.077 256.876C480.418 245.504 480.651 240.514 476.122 236.685C473.567 234.364 471.71 233.9 465.787 234.016C461.839 234.016 455.569 234.945 451.969 236.105ZM466.949 336.594C470.781 339.147 474.264 345.181 474.264 349.358C474.264 356.901 466.949 364.211 459.401 364.211C450.227 364.211 444.073 358.061 444.073 349.126C444.073 337.174 456.962 330.096 466.949 336.594ZM173.979 375.003C175.141 378.02 174.676 386.258 173.05 389.972L171.541 393.453L169.683 389.74C167.244 385.098 167.128 381.037 169.451 376.627C171.425 372.798 172.934 372.218 173.979 375.003Z" fill="#F98B83"/>
</svg>
